# xmcd
#
# Track frame offsets: 
#        150
#        18897
#        33602
#        50220
#        65973
#        85180
#        102050
#        121210
#        138215
#        152303
#        171085
#        190070
#
# Disc length: 2769 seconds
#
# Revision: 0
# Processed by: cddbd v1.5.2PL0 Copyright (c) Steve Scherf et al.
# Submitted via: ExactAudioCopy v1.3
#
DISCID=980acf0c
DTITLE=2 Bobs and a Babe - 2 Bobs and a Babe
DYEAR=1995
DGENRE=Blues
TTITLE0=Can't Be Satisfied
TTITLE1=Never Find a Friend Like Me
TTITLE2=Wish I Was a Train
TTITLE3=Crazy Love
TTITLE4=On a Roll
TTITLE5=I'll Make Love to You Any Old Time
TTITLE6=Statesboro Blues
TTITLE7=Love in Vain
TTITLE8=Wind Cries Mary
TTITLE9=Hesitation Blues
TTITLE10=Dig You
TTITLE11=Wild Horses
EXTD=
EXTT0=
EXTT1=
EXTT2=
EXTT3=
EXTT4=
EXTT5=
EXTT6=
EXTT7=
EXTT8=
EXTT9=
EXTT10=
EXTT11=
PLAYORDER=
